<svg xmlns="http://www.w3.org/2000/svg" width="256" height="256" viewBox="0 0 256 256" fill="none">
<path d="M 159.82,14.32 C 147.69,10.71 136.9,9.07 124.64,9 C 63.89,8.65 9.18,57.78 9.18,124.61 C 9.18,154.18 20.27,178.98 37.78,198.96 C 38.72,200.05 38.91,200.11 39.79,198.76 C 43.24,193.55 46.7,186.81 49.79,180.34 C 37.92,163.01 30.88,144.06 30.88,117.68 C 30.88,64.12 74.06,13.68 162.99,15.41 C 163.73,15.43 163.08,15.19 159.82,14.32 Z" fill="url(#paint0_linear_231_50)"/>
<path d="M 232.23,74.91 L 222.11,86.12 C 231.15,101.21 236.75,118.91 236.75,139.41 C 236.75,197.07 189.09,246.31 120.71,243.41 C 107.08,242.82 95.04,240.78 81.75,235.31 C 78.69,233.78 75.39,232.91 76.79,233.78 C 92.91,243.16 107.96,247.09 128.92,247.09 C 189.91,247.09 246.82,196.12 246.82,131.04 C 246.82,110.62 241.28,91.04 232.23,74.91 Z" fill="url(#paint1_linear_231_50)"/>
<path d="M 221.69,85.68 L 215.68,95.28 C 221.81,107.95 224.68,121.01 224.68,136.74 C 224.68,190.92 179.78,241.09 120.06,241.09 C 95.11,241.09 78.17,235.26 67.17,224.18 C 82.89,233.11 97.27,236.11 117.69,236.11 C 176.28,236.11 236.21,187.78 236.21,139.89 C 236.21,120.25 231.01,100.71 221.69,85.68 Z" fill="url(#paint2_linear_231_50)"/>
<path d="M 156.91,20.21 C 149.61,18.46 144.72,18.19 136.19,18.19 C 83.76,18.19 50.08,56.08 38.19,101.71 L 38.61,101.64 C 47.91,66.44 83.02,32.76 130.77,32.76 C 139.63,32.76 146.6,33.78 153.21,35.91 C 152.11,29.01 154.46,25.13 156.91,20.21 Z" fill="url(#paint3_linear_231_50)"/>
<path d="M 196.41,37.19 C 197.15,42.93 196.34,50.43 192.23,53.81 L 207.78,69.36 L 209.36,67.22 C 208.79,61.83 208.86,56.16 213.11,52.05 L 212.96,50.22 L 196.41,37.19 Z" fill="url(#paint4_linear_231_50)"/>
<path d="M 174.11,17.91 C 164.88,18.47 158.92,26.92 160.31,35.3 C 160.75,38.01 161.12,41.26 160.31,43.01 C 158.25,47.62 155.38,47.62 151.13,45.34 C 144.72,42.09 136.75,44.15 127.08,45.76 L 129.95,43.29 C 121.57,43.01 113.33,43.29 105.23,43.71 C 96.85,49.24 88.04,65.8 80.61,76.71 C 76.12,79.72 70.45,86.68 70.73,90.2 C 70.87,92.27 72.26,92.83 74.18,94.07 C 77.98,96.54 79.05,97.68 80.44,96.97 C 83.45,95.45 86.87,90.62 86.73,88.83 C 86.45,85.82 85.64,83.48 86.03,81.86 C 87.55,75.84 100.43,67.98 103.72,65.24 C 106.26,63.11 109.06,58.31 109.87,56.42 C 116.28,59.81 122.41,60.51 130.02,59.81 C 127.15,73.06 122.12,91.18 108.71,103.99 C 100.96,110.16 99.04,123.64 104.94,132.02 C 112.97,143.71 133.51,147.16 155.24,151.63 C 156.56,151.91 155.45,153.29 151.13,154.06 C 143.23,155.51 140.92,159.39 133.24,167.63 C 127.92,172.85 123.22,176.66 113.11,179.12 C 108.15,180.26 104.66,180.61 104.66,185.64 C 104.66,189.02 107.87,192.13 110.34,196.39 C 113.76,202.19 114.93,209.15 122.93,213.41 C 125.91,214.28 127.43,212.76 126.94,210.23 C 126.44,207.76 123.46,205.91 123.46,198.41 C 123.46,189.09 126.12,186.22 134.09,182.34 C 144.86,177.08 169.52,169.65 177.49,160.33 C 180.62,156.66 181.12,149.86 177.63,145.54 C 167.89,133.5 152.71,125.57 138.11,118.14 C 136.53,117.33 137.41,116.13 138.93,113.73 C 146.12,102.33 153.93,99.15 168.25,84.27 C 172.95,92.93 187.13,102.89 193.98,105.64 C 202.22,106.81 216.82,82.14 221.78,75.18 C 225.96,71.23 232.51,65.77 228.95,58.91 C 226.35,53.76 223.41,51.77 220.29,53.22 C 218.23,54.74 215.76,57.14 214.62,58.24 C 213.23,60.7 214.48,65.85 213.91,69.03 C 213.21,72.98 196.13,87.93 193.66,88.96 C 191.05,82.31 185.87,78.28 183.13,75.81 C 180.26,71.13 179.06,63.63 171.63,60.31 C 170.93,56.12 174.73,52.74 178.22,54.33 C 181.95,55.98 184.35,57.21 185.8,54.75 C 187.06,51.7 188.45,48.21 190.76,46.9 C 192.15,46.13 190.16,43.42 190.16,41.6 C 190.16,37.86 190.44,36.41 190.44,32.22 C 190.44,24.72 183.82,17.91 174.11,17.91 Z" fill="url(#paint5_linear_231_50)"/>
<path d="M 97.84,126.96 C 91.85,138.78 86.24,154.71 80.11,164.67 C 75.22,170.62 67.44,171.56 60.08,178.92 C 54.12,184.88 46.76,202.47 40.8,206.72 C 37.85,208.93 30.42,208.23 29.16,209.61 C 26.62,211.94 28.01,216.68 28.43,220.72 C 28.71,224.24 28.01,232.62 28.71,238.51 C 29.41,244.4 32.36,247.09 37.92,247.09 C 40.01,247.09 40.87,244.91 39.26,242.71 C 36.72,239.19 38.61,234.73 42.13,226.94 C 47.23,215.32 68.81,194.06 80.04,186.16 C 89.01,181.27 94.11,176.73 120.92,146.22 C 108.36,142.84 99.46,136.74 97.84,126.96 Z" fill="url(#paint6_linear_231_50)"/>
<path d="M 173.45,69.5 C 172.96,76.16 171.14,79.17 168.67,84.13 C 173.73,92.27 186.41,102.16 193.91,105.61 C 201.1,107.13 215.04,85.61 221.72,75.11 C 214.15,81.72 204.23,95.48 193.45,94.92 C 186.19,90.13 175.28,80.74 173.45,69.5 Z" fill="url(#paint7_linear_231_50)"/>
<path d="M 109.52,50.72 C 104.75,50.44 102.76,53.96 100.64,56.61 C 95.75,62.71 86.73,72.91 83.03,77.94 C 88.21,73.75 99.19,64.64 103.3,61.12 C 106.24,58.52 108.85,55.66 109.73,55.8 C 115.76,58.91 122.81,59.94 129.74,59.45 C 132.21,60.77 139.64,64.51 139.64,71.73 C 139.64,82.66 133.97,90.27 126.07,96.04 C 117.69,101.81 114.75,107.87 115.89,117.05 C 117.41,127.19 127.01,130.44 137.12,134.32 C 146.93,138.2 161.74,142.46 166.37,147.38 C 170.41,151.7 168.22,158.73 160.25,162.18 C 147.83,167.21 137.65,174.86 125.72,181.62 C 118.04,185.63 113.18,188.67 112.31,195.25 C 111.61,200.28 113.91,203.98 115.83,207.83 C 112.82,203.09 111.27,196.44 106.41,190.13 C 104.28,187.26 103.93,183.6 106.16,181.62 C 108.63,179.41 115.41,179.06 120.57,176.34 C 129.13,171.95 136.63,160.05 142.3,156.53 C 146.1,154.13 152.22,153.92 155.31,152.17 C 152.37,150.55 142.94,149.61 135.19,147.21 C 124.64,143.86 110.71,140.48 104.75,132.17 C 99.11,124.24 101.72,111.22 108.63,104.64 C 122.42,92.91 127.71,77.44 130.65,60.16 C 131.22,56.71 127.8,53.36 122.77,52.33 C 118.45,51.46 114.72,50.72 109.52,50.72 Z" fill="url(#paint8_linear_231_50)"/>
<path d="M 68.74,204.71 C 65.15,206.92 59.12,213.71 57.43,215.16 C 74.94,227.97 93.05,236.11 120.13,236.11 C 170.93,236.11 207.67,197.07 216.17,155.11 C 202.16,190.27 169.42,222.73 124.78,222.73 C 101.44,222.73 82.46,214.73 69.05,203.81 L 68.74,204.71 Z" fill="url(#paint9_linear_231_50)"/>
<path d="M 46.76,185.16 C 31.65,167.14 19.46,145.76 19.46,114.97 C 19.46,58.98 61.15,9.74 128.49,12.14 C 138.68,12.14 149.29,13.16 162.03,15.44 C 151.13,10.35 137.26,9 123.46,9 C 64.41,9 9.18,56.96 9.18,124.4 C 9.18,151.7 20.01,173.83 37.71,198.96 C 38.79,200.38 39.36,199.61 40.06,198.62 C 42.34,195.91 45.63,189.44 46.76,185.16 Z" fill="url(#paint10_linear_231_50)"/>
<defs>
<linearGradient id="paint0_linear_231_50" x1="86.0859" y1="9.00171" x2="86.0859" y2="199.829" gradientUnits="userSpaceOnUse">
<stop stop-color="#62C7EA"/>
<stop offset="1" stop-color="#228DBF"/>
</linearGradient>
<linearGradient id="paint1_linear_231_50" x1="161.804" y1="74.9062" x2="161.804" y2="247.09" gradientUnits="userSpaceOnUse">
<stop stop-color="#A99A8E"/>
<stop offset="1" stop-color="#50463B"/>
</linearGradient>
<linearGradient id="paint2_linear_231_50" x1="151.94" y1="85.6836" x2="151.94" y2="241.087" gradientUnits="userSpaceOnUse">
<stop stop-color="#574B3D"/>
<stop offset="1" stop-color="#50463B"/>
</linearGradient>
<linearGradient id="paint3_linear_231_50" x1="97.5506" y1="18.1875" x2="97.5506" y2="101.707" gradientUnits="userSpaceOnUse">
<stop stop-color="#9D8E84"/>
<stop offset="1" stop-color="#84786F"/>
</linearGradient>
<linearGradient id="paint4_linear_231_50" x1="202.772" y1="37.1914" x2="202.772" y2="69.3604" gradientUnits="userSpaceOnUse">
<stop stop-color="#92867C"/>
<stop offset="1" stop-color="#84786F"/>
</linearGradient>
<linearGradient id="paint5_linear_231_50" x1="150.036" y1="17.8403" x2="150.036" y2="213.908" gradientUnits="userSpaceOnUse">
<stop stop-color="#60C5ED"/>
<stop offset="1" stop-color="#2A6282"/>
</linearGradient>
<linearGradient id="paint6_linear_231_50" x1="74.3992" y1="126.955" x2="74.3992" y2="247.09" gradientUnits="userSpaceOnUse">
<stop stop-color="#2A364B"/>
<stop offset="1" stop-color="#486A88"/>
</linearGradient>
<linearGradient id="paint7_linear_231_50" x1="195.194" y1="69.4956" x2="195.194" y2="105.882" gradientUnits="userSpaceOnUse">
<stop stop-color="#4894C1"/>
<stop offset="1" stop-color="#37647F"/>
</linearGradient>
<linearGradient id="paint8_linear_231_50" x1="137.25" y1="50.6484" x2="137.25" y2="207.826" gradientUnits="userSpaceOnUse">
<stop stop-color="#2A567A"/>
<stop offset="1" stop-color="#38536A"/>
</linearGradient>
<linearGradient id="paint9_linear_231_50" x1="136.797" y1="155.109" x2="136.797" y2="236.109" gradientUnits="userSpaceOnUse">
<stop stop-color="#2A4865"/>
<stop offset="1" stop-color="#48617A"/>
</linearGradient>
<linearGradient id="paint10_linear_231_50" x1="85.6073" y1="9" x2="85.6073" y2="199.829" gradientUnits="userSpaceOnUse">
<stop stop-color="#62C7EA"/>
<stop offset="1" stop-color="#325472"/>
</linearGradient>
</defs>
</svg>